<svg width="36" height="36" viewBox="0 0 36 36" fill="none" xmlns="http://www.w3.org/2000/svg">
<path d="M33.3 15.5C34.2 15.8 34.8 16.6 34.8 17.6C34.8 17.7 34.8 17.8 34.8 17.9C34.8 18 34.8 18.1 34.8 18.2C34.8 19.1 34.2 20 33.3 20.3L31.1 21.1C30.5 21.3 30 21.8 29.8 22.4C29.7 22.7 29.6 23 29.4 23.3C29.1 23.9 29.2 24.6 29.5 25.1L30.5 27.2C30.9 28 30.8 29.1 30.1 29.7C30 29.8 29.8 30 29.7 30.1C29 30.8 28 30.9 27.2 30.5L25.1 29.5C24.5 29.2 23.8 29.2 23.3 29.4C23 29.5 22.7 29.6 22.4 29.8C21.8 30 21.3 30.5 21.1 31.1L20.3 33.3C20 34.2 19.2 34.8 18.2 34.8C18.1 34.8 18 34.8 17.9 34.8C17.8 34.8 17.7 34.8 17.6 34.8C16.7 34.8 15.8 34.2 15.5 33.3L14.7 31.1C14.5 30.5 14 30 13.4 29.8C13.1 29.7 12.8 29.6 12.5 29.4C11.9 29.1 11.2 29.2 10.7 29.5L8.59998 30.5C7.79998 30.9 6.69998 30.8 6.09998 30.1C5.99998 30 5.79998 29.8 5.69998 29.7C4.99998 29 4.89999 28 5.29999 27.2L6.29999 25.1C6.59999 24.5 6.59999 23.8 6.39999 23.3C6.29999 23 6.2 22.7 6 22.4C5.8 21.8 5.29998 21.3 4.69998 21.1L2.5 20.3C1.6 20 1 19.2 1 18.2C1 18.1 1 18 1 17.9C1 17.8 1 17.7 1 17.6C1 16.7 1.6 15.8 2.5 15.5L4.69998 14.7C5.29998 14.5 5.8 14 6 13.4C6.1 13.1 6.19999 12.8 6.39999 12.5C6.69999 11.9 6.59999 11.2 6.29999 10.7L5.29999 8.60001C4.89999 7.80001 4.99998 6.70001 5.69998 6.10001C5.79998 6.00001 5.99998 5.8 6.09998 5.7C6.79998 5 7.79998 4.9 8.59998 5.3L10.7 6.3C11.3 6.6 12 6.6 12.5 6.4C12.8 6.3 13.1 6.2 13.4 6C14 5.8 14.5 5.3 14.7 4.7L15.5 2.5C15.8 1.6 16.6 1 17.6 1C17.7 1 17.8 1 17.9 1C18 1 18.1 1 18.2 1C19.1 1 20 1.6 20.3 2.5L21.1 4.7C21.3 5.3 21.8 5.8 22.4 6C22.7 6.1 23 6.2 23.3 6.4C23.9 6.7 24.6 6.6 25.1 6.3L27.2 5.3C28 4.9 29.1 5 29.7 5.7C29.8 5.8 30 6.00001 30.1 6.10001C30.8 6.80001 30.9 7.80001 30.5 8.60001L29.5 10.7C29.2 11.3 29.2 12 29.4 12.5C29.5 12.8 29.6 13.1 29.8 13.4C30 14 30.5 14.5 31.1 14.7L33.3 15.5ZM17.8 12.9C19.2 12.9 20.3 13.4 21.3 14.4C22.3 15.4 22.8 16.6 22.8 17.9C22.8 19.3 22.3 20.4 21.3 21.4C20.3 22.4 19.1 22.9 17.8 22.9C16.4 22.9 15.3 22.4 14.3 21.4C13.3 20.4 12.8 19.2 12.8 17.9C12.8 16.5 13.3 15.4 14.3 14.4C15.3 13.4 16.4 12.9 17.8 12.9Z" stroke="black" stroke-width="2" stroke-miterlimit="10"/>
</svg>
