<?xml version="1.0" encoding="utf-8"?>
<!-- Generator: Adobe Illustrator 21.1.0, SVG Export Plug-In . SVG Version: 6.00 Build 0)  -->
<svg version="1.1" id="Layer_1" xmlns="http://www.w3.org/2000/svg" xmlns:xlink="http://www.w3.org/1999/xlink" x="0px" y="0px"
	 viewBox="0 0 1006.6 800" style="enable-background:new 0 0 1006.6 800;" xml:space="preserve">
<style type="text/css">
	.st0{fill:none;stroke:#000000;stroke-width:2;stroke-miterlimit:10;}
	.st1{fill:none;stroke:#000000;stroke-width:2;stroke-linecap:round;stroke-linejoin:round;stroke-miterlimit:10;}
	.st2{fill:none;stroke:#000000;stroke-width:2;stroke-linecap:round;stroke-miterlimit:10;}
</style>
<path class="st0" d="M195,106.1l-7.3,7.5c-0.2,0.2-0.3,0.5-0.3,0.8l1.7,10.6c0.1,0.8-0.7,1.4-1.3,1l-9-5c-0.3-0.1-0.6-0.1-0.9,0
	l-9.1,5c-0.7,0.4-1.5-0.2-1.3-1l1.7-10.6c0.1-0.3,0-0.6-0.3-0.9l-7.4-7.5c-0.5-0.6-0.2-1.5,0.5-1.6l10.1-1.6c0.3,0,0.6-0.2,0.7-0.5
	l4.6-9.7c0.3-0.7,1.3-0.7,1.6,0l4.5,9.6c0.1,0.3,0.4,0.5,0.7,0.5l10.2,1.6C195.2,104.5,195.5,105.5,195,106.1z"/>
<g>
	<path class="st0" d="M341.3,107.9c-0.4-3.7-2.5-6.6-6.1-8.8c-3.6-2.2-7.8-3.1-12.4-2.6c-4.7,0.5-8.5,2.3-11.5,5.2
		c-3,3-4.3,6.3-3.8,10c0.4,3.5,2.3,6.4,5.6,8.6c0.6,0.4,0.8,1.1,0.6,1.7c-0.3,0.8-0.6,1.6-0.9,2.3c-0.5,1.1,0.5,2.3,1.7,2.1
		c2.9-0.6,5.3-1.6,7.2-2.9c0.3-0.2,0.6-0.3,1-0.3c1.2,0.1,2.3,0,3.4-0.1c4.7-0.5,8.5-2.3,11.5-5.2
		C340.4,114.9,341.7,111.6,341.3,107.9z"/>
	<line class="st1" x1="316" y1="106.5" x2="332" y2="106.5"/>
	<line class="st1" x1="321" y1="111.5" x2="332" y2="111.5"/>
</g>
<path class="st2" d="M412.9,99.5c0.4,0.4,0.6,1,0.6,1.6v1.5c0,1.4-0.8,2.7-2.1,3.2l-13.6,5.8c-0.9,0.4-1.9,0.4-2.8,0l-14.6-6.2
	c-0.6-0.3-1.1-0.9-1.1-1.6v-2.6c0-0.6,0.2-1.1,0.6-1.6c0.4-0.4,0.9-0.7,1.5-0.7h29.8C411.9,98.8,412.4,99.1,412.9,99.5z
	 M413.5,103.4v17.2c0,0.6-0.2,1.1-0.6,1.6c-0.4,0.4-0.9,0.7-1.5,0.7h-29.8c-0.6,0-1.1-0.2-1.5-0.7c-0.4-0.4-0.6-1-0.6-1.6v-17.2
	 M411,122.2l-7-8 M389,114.2l-7,8"/>
<path class="st0" d="M483,109.2c0.9,0.3,1.5,1.1,1.5,2.1c0,0.1,0,0.2,0,0.3c0,0.1,0,0.2,0,0.3c0,0.9-0.6,1.8-1.5,2.1l-2.2,0.8
	c-0.6,0.2-1.1,0.7-1.3,1.3c-0.1,0.3-0.2,0.6-0.4,0.9c-0.3,0.6-0.2,1.3,0.1,1.8l1,2.1c0.4,0.8,0.3,1.9-0.4,2.5
	c-0.1,0.1-0.3,0.3-0.4,0.4c-0.7,0.7-1.7,0.8-2.5,0.4l-2.1-1c-0.6-0.3-1.3-0.3-1.8-0.1c-0.3,0.1-0.6,0.2-0.9,0.4
	c-0.6,0.2-1.1,0.7-1.3,1.3l-0.8,2.2c-0.3,0.9-1.1,1.5-2.1,1.5c-0.1,0-0.2,0-0.3,0c-0.1,0-0.2,0-0.3,0c-0.9,0-1.8-0.6-2.1-1.5
	l-0.8-2.2c-0.2-0.6-0.7-1.1-1.3-1.3c-0.3-0.1-0.6-0.2-0.9-0.4c-0.6-0.3-1.3-0.2-1.8,0.1l-2.1,1c-0.8,0.4-1.9,0.3-2.5-0.4
	c-0.1-0.1-0.3-0.3-0.4-0.4c-0.7-0.7-0.8-1.7-0.4-2.5l1-2.1c0.3-0.6,0.3-1.3,0.1-1.8c-0.1-0.3-0.2-0.6-0.4-0.9
	c-0.2-0.6-0.7-1.1-1.3-1.3l-2.2-0.8c-0.9-0.3-1.5-1.1-1.5-2.1c0-0.1,0-0.2,0-0.3c0-0.1,0-0.2,0-0.3c0-0.9,0.6-1.8,1.5-2.1l2.2-0.8
	c0.6-0.2,1.1-0.7,1.3-1.3c0.1-0.3,0.2-0.6,0.4-0.9c0.3-0.6,0.2-1.3-0.1-1.8l-1-2.1c-0.4-0.8-0.3-1.9,0.4-2.5
	c0.1-0.1,0.3-0.3,0.4-0.4c0.7-0.7,1.7-0.8,2.5-0.4l2.1,1c0.6,0.3,1.3,0.3,1.8,0.1c0.3-0.1,0.6-0.2,0.9-0.4c0.6-0.2,1.1-0.7,1.3-1.3
	l0.8-2.2c0.3-0.9,1.1-1.5,2.1-1.5c0.1,0,0.2,0,0.3,0c0.1,0,0.2,0,0.3,0c0.9,0,1.8,0.6,2.1,1.5l0.8,2.2c0.2,0.6,0.7,1.1,1.3,1.3
	c0.3,0.1,0.6,0.2,0.9,0.4c0.6,0.3,1.3,0.2,1.8-0.1l2.1-1c0.8-0.4,1.9-0.3,2.5,0.4c0.1,0.1,0.3,0.3,0.4,0.4c0.7,0.7,0.8,1.7,0.4,2.5
	l-1,2.1c-0.3,0.6-0.3,1.3-0.1,1.8c0.1,0.3,0.2,0.6,0.4,0.9c0.2,0.6,0.7,1.1,1.3,1.3L483,109.2z M467.5,106.6c1.4,0,2.5,0.5,3.5,1.5
	c1,1,1.5,2.2,1.5,3.5c0,1.4-0.5,2.5-1.5,3.5c-1,1-2.2,1.5-3.5,1.5c-1.4,0-2.5-0.5-3.5-1.5c-1-1-1.5-2.2-1.5-3.5
	c0-1.4,0.5-2.5,1.5-3.5C465,107.1,466.1,106.6,467.5,106.6z"/>
<path class="st2" d="M557,112.1c0,4.7-1.7,8.7-5,12c-3.3,3.3-7.3,5-12,5s-8.7-1.7-12-5c-3.3-3.3-5-7.3-5-12c0-4.7,1.7-8.7,5-12
	c3.3-3.3,7.3-5,12-5s8.7,1.7,12,5C555.4,103.4,557,107.4,557,112.1z M539.4,101.9v8.7c0,1.3,1.1,2.4,2.4,2.4h7.1"/>
<g>
	<path class="st2" d="M665.3,128.1l3.2-9.5c0-0.1,0.1-0.1,0.1-0.2l20-20c0,0,0,0,0,0l2.1-2.1c0.7-0.7,1.6-1.1,2.6-1.1
		c1,0,3.7,1.1,4.4,1.8c0.7,0.7,1.7,3.3,1.7,4.3c0,1-0.3,1.9-1.1,2.6l-2.1,2.1l0,0l-20,20c0,0-0.1,0.1-0.2,0.1l-9.5,3.2
		C665.8,129.6,665.1,128.8,665.3,128.1z"/>
	<line class="st2" x1="690.2" y1="102.4" x2="694.4" y2="106.5"/>
</g>
<g>
	<path class="st2" d="M770.9,99.5c0.4,0.4,0.6,0.9,0.6,1.4v3.9v2.1v16c0,0.5-0.2,1-0.6,1.4c-0.4,0.4-0.9,0.6-1.4,0.6h-29.9
		c-0.6,0-1-0.2-1.4-0.6c-0.4-0.4-0.6-0.9-0.6-1.4v-18.3c0-0.2,0.1-0.5,0.2-0.6c0.5-0.7,1.1-1.1,1.9-1.1h15.7c1.2-0.1,1.9-0.8,2-2
		c0.6-1.3,1.5-2,3-2h9.2C770,98.9,770.5,99.1,770.9,99.5z"/>
	<line class="st2" x1="771.1" y1="103.8" x2="761.9" y2="103.8"/>
</g>
<g>
	<ellipse class="st2" cx="825.3" cy="109.7" rx="15.1" ry="14.7"/>
	<line class="st2" x1="835.5" y1="120.4" x2="844.3" y2="129"/>
</g>
<g>
	<path class="st2" d="M266.1,198.2h-26.1c-2.2,0-3.9-1.8-3.9-3.9v-20.1c0-2.2,1.8-3.9,3.9-3.9h26.1c2.2,0,3.9,1.8,3.9,3.9v20.1
		C270,196.4,268.2,198.2,266.1,198.2z"/>
	<path class="st2" d="M240,190.2l5.7-4.9c0.8-0.7,1.9-0.7,2.7-0.2l7.2,4.3c0.8,0.5,1.9,0.4,2.6-0.2l7.7-6"/>
	<circle class="st2" cx="256" cy="178.2" r="3"/>
</g>
<g>
	<path class="st2" d="M337.9,270.2h-29.8c-1.2,0-2.1-0.9-2.1-2.1v-16.8c0-1.2,0.9-2.1,2.1-2.1h29.8c1.2,0,2.1,0.9,2.1,2.1v16.8
		C340,269.3,339.1,270.2,337.9,270.2z"/>
	<circle class="st2" cx="323" cy="260.2" r="6"/>
	<line class="st2" x1="334" y1="254.2" x2="339" y2="254.2"/>
	<path class="st2" d="M310,248.2v-1c0-1.1,0.9-2,2-2l0,0c1.1,0,2,0.9,2,2v1"/>
	<path class="st2" d="M323,249.2l1.3-4c0.4-0.6,1.1-1,1.9-1h5.6c0.8,0,1.5,0.4,1.9,1l1.3,4"/>
</g>
<g>
	<path class="st2" d="M408.9,272.2h-29.8c-1.2,0-2.1-0.9-2.1-2.1v-18.8c0-1.2,0.9-2.1,2.1-2.1h29.8c1.2,0,2.1,0.9,2.1,2.1v18.8
		C411,271.3,410.1,272.2,408.9,272.2z"/>
	<path class="st2" d="M386,249.2l1.3-4c0.4-0.6,1.1-1,1.9-1h9.6c0.8,0,1.5,0.4,1.9,1l1.3,4"/>
	<path class="st2" d="M404.8,258c-3.8,1.4-6.6,2.2-11.8,2.2c-4.5,0-6.7-0.6-10.2-1.7"/>
</g>
<g>
	<path class="st2" d="M474.6,272.2h-18.2c-1.2,0-2.1-0.9-2.1-2.1v-21.4c0-1.2,0.9-2.1,2.1-2.1h18.2c1.2,0,2.1,0.9,2.1,2.1v21.4
		C476.7,271.3,475.8,272.2,474.6,272.2z"/>
	<path class="st2" d="M461,249.1v-6.6c0-2.3,2-4.3,4.5-4.3l0,0c2.5,0,4.5,1.9,4.5,4.3v6.6"/>
</g>
<g>
	<path class="st2" d="M692.1,200.7h-18.1c-2.2,0-3.9-1.8-3.9-3.9v-13.3c0-2.2,1.8-3.9,3.9-3.9h18.1c2.2,0,3.9,1.8,3.9,3.9v13.3
		C696,198.9,694.2,200.7,692.1,200.7z"/>
	<path class="st2" d="M674.6,179.6V175c0-4.6,3.8-8.3,8.4-8.3l0,0c4.6,0,8.4,3.7,8.4,8.3v4.5"/>
</g>
<g>
	<path class="st2" d="M762.1,200.7h-18.1c-2.2,0-3.9-1.8-3.9-3.9v-13.3c0-2.2,1.8-3.9,3.9-3.9h18.1c2.2,0,3.9,1.8,3.9,3.9v13.3
		C766,198.9,764.2,200.7,762.1,200.7z"/>
	<path class="st2" d="M744.6,179.6V175c0-4.6,3.8-8.3,8.4-8.3l0,0c4,0,7.5,2.9,8.2,6.6"/>
</g>
<g>
	<path class="st2" d="M327.9,167.6c0.7,0.1,1.2,0.5,1.4,1.3v27.4c-0.2,0.8-0.7,1.2-1.4,1.3c0,0-0.1,0-0.1,0c-0.4,0-0.7-0.1-1.1-0.4
		c-2.7-2.2-10.3-6.8-10.4-6.9h-5.7c-0.5,0-1-0.2-1.4-0.6c-0.4-0.4-0.6-0.8-0.6-1.3v-0.2v-11V177c0-0.5,0.2-0.9,0.6-1.3
		c0.4-0.4,0.8-0.6,1.4-0.6h5.7c0.2-0.2,5.1-2.6,10.4-7.1c0.4-0.2,0.7-0.4,1.1-0.4l0,0C327.8,167.6,327.9,167.6,327.9,167.6
		L327.9,167.6z"/>
</g>
<g>
	<path class="st2" d="M399.9,167.6c0.7,0.1,1.2,0.5,1.4,1.3v27.4c-0.2,0.8-0.7,1.2-1.4,1.3c0,0-0.1,0-0.1,0c-0.4,0-0.7-0.1-1.1-0.4
		c-2.7-2.2-10.3-6.8-10.4-6.9h-5.7c-0.5,0-1-0.2-1.4-0.6c-0.4-0.4-0.6-0.8-0.6-1.3v-0.2v-11V177c0-0.5,0.2-0.9,0.6-1.3
		c0.4-0.4,0.8-0.6,1.4-0.6h5.7c0.2-0.2,5.1-2.6,10.4-7.1c0.4-0.2,0.7-0.4,1.1-0.4l0,0C399.8,167.6,399.9,167.6,399.9,167.6
		L399.9,167.6z"/>
	<path class="st2" d="M405.9,173.9c4.8,0,8.7,3.8,8.7,8.5c0,4.7-3.9,8.5-8.7,8.5"/>
	<path class="st2" d="M405.9,177.8c2.6,0,4.7,2,4.7,4.6c0,2.5-2.1,4.6-4.7,4.6"/>
</g>
<g>
	<path class="st2" d="M471.9,167.6c0.7,0.1,1.2,0.5,1.4,1.3v27.4c-0.2,0.8-0.7,1.2-1.4,1.3c0,0-0.1,0-0.1,0c-0.4,0-0.7-0.1-1.1-0.4
		c-2.7-2.2-10.3-6.8-10.4-6.9h-5.7c-0.5,0-1-0.2-1.4-0.6c-0.4-0.4-0.6-0.8-0.6-1.3v-0.2v-11V177c0-0.5,0.2-0.9,0.6-1.3
		c0.4-0.4,0.8-0.6,1.4-0.6h5.7c0.2-0.2,5.1-2.6,10.4-7.1c0.4-0.2,0.7-0.4,1.1-0.4l0,0C471.8,167.6,471.9,167.6,471.9,167.6
		L471.9,167.6z"/>
	<g>
		<line class="st2" x1="479" y1="179.1" x2="487" y2="187.1"/>
		<line class="st2" x1="487" y1="179.1" x2="479" y2="187.1"/>
	</g>
</g>
<g>
	<path class="st1" d="M166.9,184.8v13.7c0,0.7,0.5,1.2,1.2,1.2h5.7c0.5,0,0.9-0.4,0.9-0.9v-7.5c0-1.1,0.9-1.9,2-1.9h5.7
		c1.1,0,2,0.9,2,1.9v7.6c0,0.5,0.4,0.8,0.8,0.8h5.9c0.6,0,1.1-0.5,1.1-1.1v-13.8"/>
	<polyline class="st1" points="196.5,182.4 179.9,167.7 162.5,182.4 	"/>
</g>
<g>
	<path class="st2" d="M189.1,493.1h-17.4c-0.8,0-1.4-0.6-1.4-1.4V465c0-0.8,0.6-1.4,1.4-1.4h17.4c0.8,0,1.4,0.6,1.4,1.4v26.7
		C190.5,492.5,189.9,493.1,189.1,493.1z"/>
	<line class="st2" x1="169.4" y1="468" x2="191.4" y2="468"/>
	<path class="st2" d="M176.6,462.3c0.4-1.8,1.9-3.2,3.8-3.2c1.9,0,3.4,1.4,3.8,3.2"/>
	<line class="st2" x1="185.1" y1="472.8" x2="185.1" y2="488"/>
	<line class="st2" x1="175.8" y1="472.8" x2="175.8" y2="488"/>
	<line class="st2" x1="180.4" y1="472.8" x2="180.4" y2="488"/>
</g>
<g>
	<g>
		<path class="st2" d="M328.2,467.7l-6.2-6.2c-2.8-2.8-7.3-3.1-9.8-0.5c-2.6,2.6-2.3,7,0.5,9.8l6.2,6.2"/>
		<path class="st2" d="M326.4,484.6l6.2,6.2c2.8,2.8,7.3,3.1,9.8,0.5c2.6-2.6,2.3-7-0.5-9.8l-6.2-6.2"/>
	</g>
	<line class="st2" x1="320.1" y1="469.2" x2="331.5" y2="480.6"/>
</g>
<g>
	<circle class="st2" cx="254.9" cy="472.8" r="17"/>
	<circle class="st2" cx="254.9" cy="472.8" r="9"/>
	<g>
		<path class="st2" d="M251.2,462.6"/>
		<path class="st2" d="M245.8,457.6"/>
		<line class="st2" x1="242.5" y1="461.4" x2="247.9" y2="466.3"/>
	</g>
	<g>
		<path class="st2" d="M270.1,480.8"/>
		<path class="st2" d="M264.7,475.8"/>
		<line class="st2" x1="261.4" y1="479.6" x2="266.8" y2="484.5"/>
	</g>
	<g>
		<path class="st2" d="M258.1,462.4"/>
		<path class="st2" d="M263.3,457.3"/>
		<line class="st2" x1="266.8" y1="460.9" x2="261.5" y2="466"/>
	</g>
	<g>
		<path class="st2" d="M239.8,481.3"/>
		<path class="st2" d="M245,476.1"/>
		<line class="st2" x1="248.5" y1="479.8" x2="243.3" y2="484.9"/>
	</g>
</g>
<g>
	<path class="st2" d="M770.2,405.7c-2.5,4.8-7.4,8-13.2,8c-8.2,0-14.8-6.7-14.8-15c0-8.3,6.6-15,14.8-15c4.5,0,8.6,2.1,11.3,5.3"/>
	<polyline class="st2" points="759.2,389.7 769.1,389.8 769.2,379.8 	"/>
</g>
<g>
	<path class="st2" d="M814.2,405.7c2.5,4.8,7.4,8,13.2,8c8.2,0,14.8-6.7,14.8-15c0-8.3-6.6-15-14.8-15c-4.5,0-8.6,2.1-11.3,5.3"/>
	<polyline class="st2" points="825.2,389.7 815.3,389.8 815.2,379.8 	"/>
</g>
<g>
	<path class="st2" d="M188.4,268.6h-15.8c-1.5,0-2.6-1.2-2.6-2.6v-24.7c0-1.5,1.2-2.6,2.6-2.6h15.8c1.5,0,2.6,1.2,2.6,2.6V266
		C191,267.4,189.8,268.6,188.4,268.6z"/>
	<path class="st2" d="M185.3,269.1v1.4c0,1.2-1,2.1-2.1,2.1h-16c-1.2,0-2.1-1-2.1-2.1v-24.9c0-1.2,1-2.1,2.1-2.1h1.7"/>
	<line class="st2" x1="175" y1="246.2" x2="186" y2="246.2"/>
	<line class="st2" x1="175" y1="252.2" x2="186" y2="252.2"/>
	<line class="st2" x1="175" y1="258.2" x2="182" y2="258.2"/>
</g>
<path class="st2" d="M843.9,167.1l-0.4,3c0,0.2-0.1,0.5-0.3,0.6c-1.5,1.3-7.4,5.6-7.5,7c0,0-0.2,2-0.5,3c-0.1,0.3-0.3,0.6-0.6,0.7
	l-2.2,0.7c-0.3,0.1-0.5,0.3-0.6,0.5l-1.2,2.9c0,0.4-0.2,0.7-0.6,0.8l-1,0.4c-1,0.3-1.6,1.5-1.5,2.5c0.1,0.4,0.1,0.9,0.1,1.3
	c0,2.4-0.9,4.5-2.6,6.2c-1.7,1.7-3.8,2.6-6.2,2.6c-2.4,0-4.5-0.9-6.2-2.6c-1.7-1.7-2.6-3.8-2.6-6.2c0-2.4,0.9-4.5,2.6-6.2
	c1.7-1.7,3.8-2.6,6.2-2.6c0.3,0,0.7,0,1.2,0.1c0.7,0.1,1.3-0.1,1.8-0.5c0,0,14.3-13.1,17.3-15.7c0.3-0.3,0.8-0.4,1.2-0.3l2.7,0.6
	C843.6,166.1,843.9,166.6,843.9,167.1z M815.6,190c-0.5,0.5-0.8,1.1-0.8,1.9c0,0.7,0.3,1.3,0.8,1.9c0.5,0.5,1.1,0.8,1.9,0.8
	c0.7,0,1.3-0.3,1.9-0.8c0.5-0.5,0.8-1.1,0.8-1.9c0-0.4-0.1-0.8-0.3-1.1c-0.5-1-1.3-1.5-2.3-1.5C816.7,189.3,816.1,189.5,815.6,190z"
	/>
<g>
	<path class="st2" d="M599.2,260.7V251c0-5.6,4.6-10.1,10.3-10.1l0,0c5.7,0,10.3,4.5,10.3,10.1v9.8"/>
	<path class="st2" d="M606.6,261.5h13.6c1.8,0,3.3,1.4,3.3,3.2l0,0c0,1.8-1.5,3.2-3.3,3.2h-21.4c-1.8,0-3.3-1.4-3.3-3.2l0,0
		c0-1.8,1.5-3.2,3.3-3.2h1.6"/>
	<line class="st2" x1="609.9" y1="237.2" x2="609.9" y2="240.4"/>
	<path class="st2" d="M612.5,268.3c0,1.6-1.3,2.9-3,2.9c-1.7,0-3-1.3-3-2.9"/>
</g>
<g>
	<path class="st2" d="M696.3,262.2h-28.6c-1.5,0-2.7-1.2-2.7-2.7v-14.6c0-1.5,1.2-2.7,2.7-2.7h28.6c1.5,0,2.7,1.2,2.7,2.7v14.6
		C699,261,697.8,262.2,696.3,262.2z"/>
	<rect x="679" y="262.2" class="st2" width="6" height="7"/>
	<line class="st2" x1="673.5" y1="269.2" x2="690.5" y2="269.2"/>
	<line class="st2" x1="671.5" y1="257.2" x2="698.5" y2="257.2"/>
</g>
<g>
	<path class="st2" d="M739,259.7v-16.2c0-0.9,0.7-1.6,1.6-1.6h26.8c0.9,0,1.6,0.7,1.6,1.6v16.2H739z"/>
	<path class="st2" d="M771,265.4v1.9c0,0.9-0.8,1.6-1.8,1.6h-30.4c-1,0-1.8-0.7-1.8-1.6v-1.9l1.7-5.2c0.2-0.5,0.7-0.9,1.3-0.9h28.1
		c0.6,0,1.1,0.4,1.3,0.9L771,265.4z"/>
	<line class="st2" x1="743" y1="265.4" x2="770" y2="265.4"/>
</g>
<g>
	<path class="st2" d="M815,268.5v-28.6c0-1.5,1.2-2.7,2.7-2.7h14.6c1.5,0,2.7,1.2,2.7,2.7v28.6c0,1.5-1.2,2.7-2.7,2.7h-14.6
		C816.2,271.2,815,270,815,268.5z"/>
	<line class="st2" x1="820" y1="241.2" x2="835" y2="241.2"/>
	<line class="st2" x1="815" y1="265.2" x2="835" y2="265.2"/>
</g>
<g>
	<path class="st2" d="M186.3,402.6c0,0-14.6-0.1-21.6-0.1c-1.6,0-2.1-0.6-2.1-2.3c0-0.6,0-1.1,0-1.7c0-1.3,0.7-2,1.9-2
		c7.1,0,21.9,0,21.9,0s-3.8-4.2-5.5-6c-1-1-1-2,0-3c0.4-0.5,0.9-0.9,1.3-1.4c0.8-0.8,1.7-0.8,2.5,0c3.8,4,7.6,8,11.4,12.1
		c0.8,0.8,0.7,1.8,0,2.6c-3.8,4-7.6,8.1-11.4,12.1c-0.8,0.8-1.7,0.8-2.5,0c-0.5-0.5-0.9-1-1.4-1.4c-0.9-0.9-0.9-1.9,0-2.8
		C182.4,406.8,186.3,402.6,186.3,402.6z"/>
</g>
<g>
	<path class="st2" d="M245.7,402.6c0,0,14.6-0.1,21.6-0.1c1.6,0,2.1-0.6,2.1-2.3c0-0.6,0-1.1,0-1.7c0-1.3-0.7-2-1.9-2
		c-7.1,0-21.9,0-21.9,0s3.8-4.2,5.5-6c1-1,1-2,0-3c-0.4-0.5-0.9-0.9-1.3-1.4c-0.8-0.8-1.7-0.8-2.5,0c-3.8,4-7.6,8-11.4,12.1
		c-0.8,0.8-0.7,1.8,0,2.6c3.8,4,7.6,8.1,11.4,12.1c0.8,0.8,1.7,0.8,2.5,0c0.5-0.5,0.9-1,1.4-1.4c0.9-0.9,0.9-1.9,0-2.8
		C249.6,406.8,245.7,402.6,245.7,402.6z"/>
</g>
<path class="st2" d="M192.8,341c-0.1-0.6-2.2-3.3-3.6-5c-0.6-0.8-1.6-1-2.5-0.6c-0.7,0.3-1.4,0.7-2.1,1c-0.2,0.1-0.5,0.1-0.7,0
	c-0.5-0.3-0.9-0.7-1.3-1.2c-1-1.2-4.4-9.3-4.5-9.5c-0.3-1.4,0.4-2.8,1.7-3.4c0.2-0.1,0.3-0.2,0.5-0.2c0.8-0.4,1.2-1.1,1.1-1.9
	c-0.3-2.5-1-8.2-4.3-7.8c-2,0.2-2.6,0.7-4.4,1.6c-0.5,0.2-3.7,2-1.9,9.3c0.8,3.4,1.5,6.7,2.9,9.8c0.9,1.9,1.8,3.8,3,5.5
	c1.6,2.3,3.3,4.5,5.6,6.2C188,349.5,193,342.4,192.8,341z"/>
<g>
	<path class="st2" d="M260.8,339c-0.1-0.6-2.2-3.3-3.6-5c-0.6-0.8-1.6-1-2.5-0.6c-0.7,0.3-1.4,0.7-2.1,1c-0.2,0.1-0.5,0.1-0.7,0
		c-0.5-0.3-0.9-0.7-1.3-1.2c-1-1.2-4.4-9.3-4.5-9.5c-0.3-1.4,0.4-2.8,1.7-3.4c0.2-0.1,0.3-0.2,0.5-0.2c0.8-0.4,1.2-1.1,1.1-1.9
		c-0.3-2.5-1-8.2-4.3-7.8c-2,0.2-2.6,0.7-4.4,1.6c-0.5,0.2-3.7,2-1.9,9.3c0.8,3.4,1.5,6.7,2.9,9.8c0.9,1.9,1.8,3.8,3,5.5
		c1.6,2.3,3.3,4.5,5.6,6.2C256,347.5,261,340.4,260.8,339z"/>
	<path class="st2" d="M257.8,313.2c0,0,10.3,2.1,8,16"/>
	<path class="st2" d="M254.9,317.2c0,0,7.7,1.5,6,12"/>
</g>
<g>
	<path class="st2" d="M340.8,332.2v6.4c0,1.2-0.9,2.1-2.1,2.1h-29.8c-1.2,0-2.1-0.9-2.1-2.1v-6.4"/>
	<g>
		<line class="st2" x1="323.8" y1="314.9" x2="323.8" y2="334.9"/>
		<line class="st2" x1="316.8" y1="329" x2="323.8" y2="334.9"/>
		<line class="st2" x1="330.8" y1="329" x2="323.8" y2="334.9"/>
	</g>
</g>
<g>
	<path class="st2" d="M413.8,332.2v6.4c0,1.2-0.9,2.1-2.1,2.1h-29.8c-1.2,0-2.1-0.9-2.1-2.1v-6.4"/>
	<g>
		<line class="st2" x1="396.8" y1="334.9" x2="396.8" y2="314.9"/>
		<line class="st2" x1="403.8" y1="320.8" x2="396.8" y2="314.9"/>
		<line class="st2" x1="389.8" y1="320.8" x2="396.8" y2="314.9"/>
	</g>
</g>
<path class="st2" d="M483.1,330.4l-21.7-15.8c-1.2-0.9-2.9,0.2-2.6,1.8l6.6,26.6c0.4,1.5,2.3,1.8,3,0.4l2.6-10.3
	c0.2-0.4,0.7-0.7,1.1-0.8l10.2,1.2C483.9,333.2,484.3,331.3,483.1,330.4z"/>
<g>
	<path class="st2" d="M557.5,314.2l-30.2,11.3c-1,0.4-1.3,1.6-0.6,2.3l15,17.7c0.6,0.8,1.9,0.6,2.4-0.2l16-28.1
		C561.1,315.5,559.4,313.5,557.5,314.2z"/>
	<path class="st2" d="M531.2,333.2l-2,7.9c0,1.1,1.3,1.8,2.2,1.1l4.8-2.4"/>
	<line class="st2" x1="533.8" y1="336.3" x2="551.9" y2="321.5"/>
</g>
<g>
	<path class="st2" d="M623.6,333.7l-6.2-15.6c-0.4-1.1-8.9-5-8.9-5c-0.7-0.2-1.5,0.1-1.8,0.8c0,0-3.2,9.2-2.8,10.3l6.2,15.6
		c0.4,1.1,1.6,1.6,2.6,1.1l9.9-4.5C623.6,336,624.1,334.7,623.6,333.7z"/>
	<path class="st2" d="M612.2,320.4c-0.4-1-1.6-1.5-2.6-1.1c-1,0.4-1.5,1.6-1,2.6c0.4,1,1.6,1.5,2.6,1.1
		C612.2,322.6,612.6,321.4,612.2,320.4z"/>
	<path class="st2" d="M611.5,319.7c0,0,6-9.8,1.5-12.6c-3.3-2-4.9,2.5-4.9,2.5"/>
</g>
<g>
	<path class="st2" d="M675.3,338.2h-5.6c-1.5,0-2.7-1.2-2.7-2.7v-14.7c0-1.5,1.2-2.7,2.7-2.7h28.6c1.5,0,2.7,1.2,2.7,2.7v14.7
		c0,1.5-1.2,2.7-2.7,2.7H693"/>
	<path class="st2" d="M675.3,318.1v-4.2c0-0.8,0.6-1.4,1.4-1.4h14.9c0.8,0,1.4,0.6,1.4,1.4v4.2"/>
	<rect x="675.3" y="333" class="st2" width="17.8" height="11.5"/>
	<line class="st2" x1="672.2" y1="333" x2="696.2" y2="333"/>
	<line class="st2" x1="693.2" y1="322.6" x2="696.2" y2="322.6"/>
</g>
<path class="st2" d="M775.7,326.2l-10.5-11c-0.6-0.7-1.7-0.2-1.7,0.7v4.7c0,0.5-0.4,1-0.9,1.1c-3.8,0.4-18.2,2.9-20.6,15.9
	c-0.2,1,1,1.7,1.7,1c3.4-3.6,10.7-9.9,18.9-8.7c0.5,0.1,0.8,0.5,0.8,1v5.4c0,0.9,1,1.4,1.7,0.8l10.5-9.4
	C776.1,327.3,776.2,326.6,775.7,326.2z"/>
<path class="st2" d="M812.3,326.2l10.5-11c0.6-0.7,1.7-0.2,1.7,0.7v4.7c0,0.5,0.4,1,0.9,1.1c3.8,0.4,18.2,2.9,20.6,15.9
	c0.2,1-1,1.7-1.7,1c-3.4-3.6-10.7-9.9-18.9-8.7c-0.5,0.1-0.8,0.5-0.8,1v5.4c0,0.9-1,1.4-1.7,0.8l-10.5-9.4
	C811.9,327.3,811.9,326.6,812.3,326.2z"/>
<path class="st2" d="M318.9,406.1l-7.3,8.1c-1.1,0.7-2.5-0.2-2.5-1.5v-26.3c0-1.1,0.9-1.9,2-1.9h17.2c1.1,0,2,0.9,2,1.9v26.3
	c0,1.3-1.4,2.1-2.5,1.5l-7.3-8.1C320,405.8,319.4,405.8,318.9,406.1z"/>
<path class="st2" d="M538,391.3l8.6,8.2c0.7,0.5,0.7,1.5,0,2l-8.6,8.7c-0.8,0.7-2.1,0.1-2.1-1v-16.9
	C536,391.3,537.2,390.7,538,391.3z"/>
<g>
	<path class="st2" d="M615.2,390.5l9.3,8.9c0.8,0.5,0.8,1.6,0,2.2l-9.3,9.4c-0.9,0.7-2.2,0.1-2.2-1.1v-18.3
		C613,390.5,614.3,389.8,615.2,390.5z"/>
	<path class="st2" d="M603.1,390.5l9.3,8.9c0.8,0.5,0.8,1.6,0,2.2l-9.3,9.4c-0.9,0.7-2.2,0.1-2.2-1.1v-18.3
		C600.9,390.5,602.2,389.8,603.1,390.5z"/>
</g>
<g>
	<path class="st2" d="M681.8,390.5l-9.3,8.9c-0.8,0.5-0.8,1.6,0,2.2l9.3,9.4c0.9,0.7,2.2,0.1,2.2-1.1v-18.3
		C684,390.5,682.7,389.8,681.8,390.5z"/>
	<path class="st2" d="M693.9,390.5l-9.3,8.9c-0.8,0.5-0.8,1.6,0,2.2l9.3,9.4c0.9,0.7,2.2,0.1,2.2-1.1v-18.3
		C696.1,390.5,694.8,389.8,693.9,390.5z"/>
</g>
<g>
	<path class="st0" d="M463,413.8h-3.7c-1.2,0-2.1-1-2.1-2.1V388c0-1.2,1-2.1,2.1-2.1h3.7c1.2,0,2.1,1,2.1,2.1v23.7
		C465.1,412.9,464.2,413.8,463,413.8z"/>
	<path class="st0" d="M477,413.8h-3.7c-1.2,0-2.1-1-2.1-2.1V388c0-1.2,1-2.1,2.1-2.1h3.7c1.2,0,2.1,1,2.1,2.1v23.7
		C479.1,412.9,478.2,413.8,477,413.8z"/>
</g>
<path class="st2" d="M534.4,165.1"/>
<g>
	<path class="st2" d="M540.4,194.5L540.4,194.5c-4.4,0-8-3.6-8-8v-14c0-4.4,3.6-8,8-8l0,0c4.4,0,8,3.6,8,8v14
		C548.4,190.9,544.8,194.5,540.4,194.5z"/>
	<path class="st2" d="M552.5,187.5c0,6.6-5.4,12.1-12.1,12.1l0,0c-6.6,0-12.1-5.4-12.1-12.1"/>
	<line class="st2" x1="540.4" y1="194.5" x2="540.4" y2="204.2"/>
</g>
<g>
	<path class="st2" d="M612.4,194.5L612.4,194.5c-4.4,0-8-3.6-8-8v-14c0-4.4,3.6-8,8-8l0,0c4.4,0,8,3.6,8,8v14
		C620.4,190.9,616.8,194.5,612.4,194.5z"/>
	<path class="st2" d="M624.5,187.5c0,6.6-5.4,12.1-12.1,12.1l0,0c-6.6,0-12.1-5.4-12.1-12.1"/>
	<line class="st2" x1="612.4" y1="194.5" x2="612.4" y2="204.2"/>
	<line class="st2" x1="624.2" y1="166.7" x2="600" y2="181.9"/>
</g>
<g>
	<path class="st2" d="M411.3,471.3c0.7,0.7,0.7,1.9,0,2.6c-2.5,2.5-8.6,7.7-15.8,7.7c-7.2,0-13.3-5.2-15.8-7.7
		c-0.7-0.7-0.7-1.9,0-2.6c2.5-2.5,8.6-7.7,15.8-7.7C402.7,463.6,408.8,468.8,411.3,471.3z"/>
	<path class="st2" d="M399.9,469.4c0,2.8-2.2,5-5,5c-2.8,0-5-2.2-5-5"/>
</g>
<g>
	<g>
		<path class="st2" d="M485.3,471.3c0.7,0.7,0.7,1.9,0,2.6c-2.5,2.5-8.6,7.7-15.8,7.7c-7.2,0-13.3-5.2-15.8-7.7
			c-0.7-0.7-0.7-1.9,0-2.6c2.5-2.5,8.6-7.7,15.8-7.7C476.7,463.6,482.8,468.8,485.3,471.3z"/>
		<path class="st2" d="M473.9,469.4c0,2.8-2.2,5-5,5c-2.8,0-5-2.2-5-5"/>
	</g>
	<line class="st2" x1="478.9" y1="460.5" x2="454.9" y2="482.5"/>
</g>
<g>
	<path class="st2" d="M531.7,480.6v-22.3c0-1,0.7-1.9,1.6-2.2l16.9-4.9c1.4-0.4,2.9,0.7,2.9,2.2v21"/>
	<ellipse class="st2" cx="528.4" cy="480.6" rx="3.3" ry="2.6"/>
	<ellipse class="st2" cx="549.8" cy="474.8" rx="3.3" ry="2.6"/>
	<line class="st2" x1="535.7" y1="462.5" x2="552.3" y2="457.8"/>
</g>
<g>
	<path class="st2" d="M602,476.8v-7.5c0-5.8,4.5-10.5,10-10.5l0,0c5.5,0,10,4.7,10,10.5v7.5"/>
	<path class="st2" d="M600.3,483.5L600.3,483.5c-2.4,0-4.3-1.9-4.3-4.3v-3.4c0-2.4,1.9-4.3,4.3-4.3l0,0c0.9,0,1.7,0.8,1.7,1.7v8.6
		C602,482.8,601.2,483.5,600.3,483.5z"/>
	<path class="st2" d="M623.7,483.5L623.7,483.5c2.4,0,4.3-1.9,4.3-4.3v-3.4c0-2.4-1.9-4.3-4.3-4.3l0,0c-0.9,0-1.7,0.8-1.7,1.7v8.6
		C622,482.8,622.8,483.5,623.7,483.5z"/>
</g>
<g>
	<g>
		<line class="st2" x1="696.2" y1="456.5" x2="696.2" y2="474.1"/>
		<line class="st2" x1="696.2" y1="480.3" x2="696.2" y2="486.5"/>
		<circle class="st2" cx="696.2" cy="477.2" r="3"/>
	</g>
	<g>
		<line class="st2" x1="684.2" y1="456.5" x2="684.2" y2="469.1"/>
		<line class="st2" x1="684.2" y1="475.3" x2="684.2" y2="486.5"/>
		<circle class="st2" cx="684.2" cy="472.2" r="3"/>
	</g>
	<g>
		<line class="st2" x1="672.2" y1="456.5" x2="672.2" y2="464.1"/>
		<line class="st2" x1="672.2" y1="470.3" x2="672.2" y2="486.5"/>
		<circle class="st2" cx="672.2" cy="467.2" r="3"/>
	</g>
</g>
<g>
	<path class="st2" d="M769,468.3c0,5.3-6.3,13.1-10.1,18.6c-1.4,2-4.4,2-5.8,0c-3.8-5.5-10.1-13.3-10.1-18.6c0-7.7,5.8-13.9,13-13.9
		C763.2,454.4,769,460.6,769,468.3z"/>
	<ellipse class="st2" cx="756" cy="467.6" rx="4" ry="4"/>
</g>
<g>
	<path class="st2" d="M522.1,248.5h27.1c1.9,0,3.2,1.9,2.4,3.6l-2.6,8.2c-0.4,0.9-1.4,1.5-2.4,1.5h-19.6c-1.2,0-2.3-0.8-2.6-2
		L522.1,248.5z"/>
	<path class="st2" d="M542,266.3h-13.2c-1.2,0-2.7,0-3.2-2l-1.3-5.1"/>
	<line class="st2" x1="517.9" y1="244.3" x2="522.1" y2="248.5"/>
	<ellipse class="st2" cx="542.5" cy="268.9" rx="2.6" ry="2.5"/>
	<ellipse class="st2" cx="529.8" cy="268.9" rx="2.6" ry="2.5"/>
</g>
<g>
	<path class="st2" d="M814.1,467.5c3.1-4.9,8.6-8.2,14.9-8.2c6.5,0,12.1,3.5,15.1,8.6"/>
	<path class="st2" d="M819.4,471c2-3.2,5.5-5.3,9.6-5.3c4.2,0,7.8,2.2,9.8,5.6"/>
	<path class="st2" d="M825,474.3c0.8-1.4,2.4-2.3,4.1-2.3c1.8,0,3.3,1,4.2,2.4"/>
	<ellipse class="st2" cx="829.1" cy="480.9" rx="3" ry="3"/>
</g>
<g>
	<path class="st2" d="M195.4,557.7h-29.8c-1.2,0-2.1-0.9-2.1-2.1v-20.8c0-1.2,0.9-2.1,2.1-2.1h29.8c1.2,0,2.1,0.9,2.1,2.1v20.8
		C197.5,556.7,196.6,557.7,195.4,557.7z"/>
	<line class="st2" x1="189.2" y1="528.6" x2="189.2" y2="534.6"/>
	<line class="st2" x1="172.2" y1="528.6" x2="172.2" y2="534.6"/>
	<line class="st2" x1="164.3" y1="539.7" x2="191.4" y2="539.7"/>
	<circle class="st2" cx="171.6" cy="547.9" r="2"/>
	<circle class="st2" cx="180.6" cy="547.9" r="2"/>
	<circle class="st2" cx="189.6" cy="547.9" r="2"/>
</g>
<g>
	<line class="st2" x1="236.6" y1="532.1" x2="236.6" y2="558.1"/>
	<line class="st2" x1="262" y1="558.1" x2="236.6" y2="558.1"/>
	<g>
		<path class="st2" d="M241,553.5c0,0,0.9-6.6,5.4-4.6c3.9,1.7,2.4-6.1,6-7.6c3.8-1.5,3.6,2.6,8.9-3.1"/>
		<polyline class="st2" points="257.6,536.7 262.6,536.7 262.6,542.7 		"/>
	</g>
</g>
<g>
	<path class="st0" d="M314.4,561.9H311c-0.7,0-1.3-0.6-1.3-1.3v-15.4c0-0.7,0.6-1.3,1.3-1.3h3.4c0.7,0,1.3,0.6,1.3,1.3v15.4
		C315.7,561.3,315.1,561.9,314.4,561.9z"/>
	<path class="st0" d="M326.4,561.9H323c-0.7,0-1.3-0.6-1.3-1.3v-25.4c0-0.7,0.6-1.3,1.3-1.3h3.4c0.7,0,1.3,0.6,1.3,1.3v25.4
		C327.7,561.3,327.1,561.9,326.4,561.9z"/>
	<path class="st0" d="M338.4,561.9H335c-0.7,0-1.3-0.6-1.3-1.3v-31.4c0-0.7,0.6-1.3,1.3-1.3h3.4c0.7,0,1.3,0.6,1.3,1.3v31.4
		C339.7,561.3,339.1,561.9,338.4,561.9z"/>
</g>
<g>
	<path class="st0" d="M405.3,540.2v-12c6.6,0,12,5.4,12,12H405.3z"/>
	<path class="st0" d="M401.3,544.2v-14c-7.7,0-14,6.3-14,14s6.3,14,14,14s14-6.3,14-14H401.3z"/>
</g>
<g>
	<circle class="st0" cx="465.2" cy="545.9" r="14"/>
	<circle class="st0" cx="465.2" cy="545.9" r="9"/>
	<circle class="st0" cx="465.2" cy="545.9" r="4"/>
	<polyline class="st2" points="479.8,527.3 479.8,533.2 479.8,533.3 485.8,533.3 	"/>
	<line class="st2" x1="465.2" y1="545.9" x2="479.8" y2="533.3"/>
</g>
<g>
	<g>
		<path class="st2" d="M531.4,549c1-1.9,3.6-6.2,7.9-7.8c0.4-0.2,0.8,0.3,0.5,0.7c-1.2,1.8-3.4,5.5-4,9.1c0,0.2,0.1,0.3,0.3,0.3
			c3.5-0.4,7.9-1.7,11.1-4.8c4.5-4.5,5-11.6,5-14.7c0-0.9-0.7-1.6-1.6-1.6c-3.1,0-10.2,0.6-14.7,5.1c-4,4-4.9,10.2-5,13.7
			C531,549.2,531.3,549.2,531.4,549z"/>
	</g>
	<path class="st2" d="M532.5,552.4c0,0-2.1,2.5-1.7,7.8"/>
</g>
<g>
	<path class="st2" d="M599.6,547.3c1.3-6.3,5.6-7.1,8.7-16c0.7-2.2,2.5-5.8,4.1-1.9c4.7,11.3,10,13.1,10.8,19.3
		c0.9,7.1-5.5,13-12.2,13C604.3,561.8,597.9,555.8,599.6,547.3z"/>
	<path class="st2" d="M619.1,549.2c0,0-0.5,5.2-5.6,7.9"/>
	<path class="st2" d="M604.4,553.3c0,0,0.9,2.2,3,2.9"/>
</g>
<g>
	<circle class="st2" cx="684.4" cy="543.4" r="15"/>
	<line class="st2" x1="673.8" y1="532.8" x2="695" y2="554"/>
</g>
<g>
	<path class="st2" d="M760.8,560.3h-14.2c-1.2,0-2.1-0.9-2.1-2.1v-16.9c0-1.2,0.9-2.1,2.1-2.1h14.2c1.2,0,2.1,0.9,2.1,2.1v16.9
		C762.9,559.4,761.9,560.3,760.8,560.3z"/>
	<path class="st2" d="M762.9,551c0.5,0.2,1.1,0.4,1.7,0.4c2.2,0,4-1.8,4-3.9c0-2.2-1.8-3.9-4-3.9c-0.6,0-1.1,0.1-1.6,0.3"/>
	<path class="st2" d="M748.5,530.5c0,0,1,1.1,0.4,2.5c-0.7,1.4-0.3,2.2,0.3,2.5"/>
	<path class="st2" d="M753.4,528.3c0,0,2.2,2.4,0.8,5.5c-1.4,3.1-0.7,4.8,0.6,5.4"/>
	<path class="st2" d="M758.5,530.8c0,0,1,1.1,0.4,2.5c-0.7,1.4-0.3,2.2,0.3,2.5"/>
	<line class="st2" x1="762.9" y1="543.5" x2="750.3" y2="543.5"/>
</g>
<g>
	<path class="st2" d="M820.3,537.4l20.5-6.7c0.6-0.2,1.3,0.3,1.3,0.9v19.9c0,0.6-0.6,1.1-1.3,0.9l-20.5-5.8"/>
	<line class="st2" x1="837.4" y1="532.8" x2="837.4" y2="543"/>
	<path class="st2" d="M818.6,547.3h-5.2c-0.7,0-1.3-0.6-1.3-1.3v-7.9c0-0.7,0.6-1.3,1.3-1.3h5.2c0.7,0,1.3,0.6,1.3,1.3v7.9
		C819.8,546.7,819.3,547.3,818.6,547.3z"/>
	<path class="st2" d="M817.5,555.3h-3.2c-0.2,0-0.4-0.2-0.4-0.4v-7.2c0-0.2,0.2-0.4,0.4-0.4h3.2c0.2,0,0.4,0.2,0.4,0.4v7.2
		C817.9,555.1,817.8,555.3,817.5,555.3z"/>
</g>
<g>
	<circle class="st2" cx="180.5" cy="606.2" r="7.2"/>
	<path class="st2" d="M166.8,633v-5.5c0-7.4,6.1-13.5,13.5-13.5h0c7.4,0,13.5,6.1,13.5,13.5v5.5"/>
	<path class="st2" d="M183.5,603c0,0-4.4,5.1-9.7,3.2"/>
</g>
<g>
	<circle class="st2" cx="252.5" cy="609.3" r="6.5"/>
	<path class="st2" d="M249.4,602.8c0-1.7,1.4-3.1,3.1-3.1c1.7,0,3.1,1.4,3.1,3.1"/>
	<path class="st2" d="M240,633.7v-5c0-6.8,5.5-12.3,12.3-12.3h0c6.8,0,12.3,5.5,12.3,12.3v5"/>
	<path class="st2" d="M253.1,607c0,0-3,3.6-6.7,2.2"/>
	<path class="st2" d="M258.4,608.7c0,0-4.7,0.2-6.2-3.3"/>
	<polyline class="st2" points="246.4,618 252.7,626.1 258,618 	"/>
</g>
<g>
	<circle class="st2" cx="406.3" cy="605.4" r="4"/>
	<circle class="st2" cx="406.3" cy="628.1" r="3.6"/>
	<circle class="st2" cx="385.3" cy="618.1" r="4"/>
	<line class="st2" x1="389.2" y1="616.2" x2="402.6" y2="607.1"/>
	<line class="st2" x1="388.5" y1="620.9" x2="403.3" y2="626"/>
</g>
<g>
	<path class="st2" d="M478.5,627.2c3.2,0,5.8-2.8,5.7-6.2c-0.1-3.1-2.5-5.7-5.5-5.8c-0.6,0-1.1,0-1.6,0.2c-0.6,0.2-1.1-0.3-1.1-0.9
		c0,0,0,0,0,0c0-5.2-4-9.3-8.8-9.3c-4.9,0-8.8,4.2-8.8,9.3c0,0,0,0,0,0c0,0.6-0.5,1-1.1,0.9c-0.5-0.1-1.1-0.2-1.6-0.2
		c-2.9,0.1-5.4,2.7-5.5,5.8c-0.1,3.4,2.5,6.2,5.7,6.2H478.5z"/>
	<path class="st2" d="M477.8,615.2c0,0-2.9,0.5-4.3,3"/>
</g>
<g>
	<path class="st2" d="M627.3,112.4c0,4.1-1.5,7.7-4.4,10.6c-2.9,2.9-6.5,4.4-10.6,4.4c-4.1,0-7.7-1.5-10.6-4.4
		c-2.9-2.9-4.4-6.5-4.4-10.6c0-4.1,1.5-7.7,4.4-10.6c2.9-2.9,6.5-4.4,10.6-4.4c4.1,0,7.7,1.5,10.6,4.4
		C625.9,104.7,627.3,108.2,627.3,112.4z M611.8,103.4v7.6c0,1.2,1,2.1,2.1,2.1h6.2"/>
	<path class="st2" d="M623.2,96.2c0,0,3.8,1.6,5,6"/>
	<path class="st2" d="M601.2,96.2c0,0-3.8,1.6-5,6"/>
	<line class="st2" x1="619.3" y1="126.1" x2="621.3" y2="128.2"/>
	<line class="st2" x1="606.2" y1="126.1" x2="604.2" y2="128.2"/>
</g>
<g>
	<g>
		<path class="st2" d="M551.5,626.4c3.2,0,5.8-2.9,5.7-6.4c-0.1-3.2-2.5-5.8-5.5-5.9c-0.6,0-1.1,0-1.6,0.2c-0.6,0.2-1.1-0.3-1.1-0.9
			c0,0,0,0,0,0c0-5.3-4-9.6-8.8-9.6s-8.8,4.3-8.8,9.6c0,0,0,0,0,0c0,0.6-0.5,1.1-1.1,0.9c-0.5-0.1-1.1-0.2-1.6-0.2
			c-2.9,0.1-5.4,2.8-5.5,5.9c-0.1,3.5,2.5,6.4,5.7,6.4H551.5z"/>
	</g>
	<g>
		<line class="st2" x1="540.1" y1="614.1" x2="540.1" y2="634.7"/>
		<g>
			<line class="st2" x1="535.1" y1="631.6" x2="540.1" y2="635.7"/>
			<line class="st2" x1="545.1" y1="631.6" x2="540.1" y2="635.7"/>
		</g>
	</g>
</g>
<g>
	<g>
		<path class="st2" d="M623.5,623.4c3.2,0,5.8-2.9,5.7-6.4c-0.1-3.2-2.5-5.8-5.5-5.9c-0.6,0-1.1,0-1.6,0.2c-0.6,0.2-1.1-0.3-1.1-0.9
			c0,0,0,0,0,0c0-5.3-4-9.6-8.8-9.6s-8.8,4.3-8.8,9.6c0,0,0,0,0,0c0,0.6-0.5,1.1-1.1,0.9c-0.5-0.1-1.1-0.2-1.6-0.2
			c-2.9,0.1-5.4,2.8-5.5,5.9c-0.1,3.5,2.5,6.4,5.7,6.4H623.5z"/>
	</g>
	<g>
		<line class="st2" x1="612.1" y1="632.7" x2="612.1" y2="612.1"/>
		<g>
			<line class="st2" x1="617.1" y1="615.2" x2="612.1" y2="611.1"/>
			<line class="st2" x1="607.1" y1="615.2" x2="612.1" y2="611.1"/>
		</g>
	</g>
</g>
<g>
	<g>
		<path class="st2" d="M692.3,627.5h-19.8c-1.2,0-2.1-0.9-2.1-2.1v-19.8c0-1.2,0.9-2.1,2.1-2.1h19.8c1.2,0,2.1,0.9,2.1,2.1v19.8
			C694.4,626.6,693.4,627.5,692.3,627.5z"/>
		<line class="st2" x1="689.7" y1="616.8" x2="670.4" y2="616.8"/>
		<line class="st2" x1="682.1" y1="627.5" x2="682.1" y2="608"/>
	</g>
	<g>
		<path class="st2" d="M675,602.9c0-2.8,1.7-5,3.8-5c2.1,0,3.8,2.2,3.8,5"/>
		<path class="st2" d="M682.5,602.9c0-2.8,1.7-5,3.8-5c2.1,0,3.8,2.2,3.8,5"/>
	</g>
</g>
<g>
	<path class="st2" d="M744.9,599.4v13.8c0,5.4,4.5,9.8,10,9.8c5.5,0,10-4.4,10-9.8v-13.8H744.9z"/>
	<line class="st2" x1="754.8" y1="623.2" x2="754.8" y2="633.1"/>
	<line class="st2" x1="764.8" y1="633.4" x2="744.9" y2="633.4"/>
	<path class="st2" d="M764.8,602.4c0,0,14.1-3.1,0,9.9"/>
	<path class="st2" d="M744.4,602.4c0,0-14.1-3.1,0,9.9"/>
	<line class="st2" x1="745.5" y1="605.2" x2="759.5" y2="605.2"/>
</g>
<g>
	<circle class="st2" cx="827.1" cy="614.8" r="17"/>
	<path class="st2" d="M815.1,614c0-6.6,5.4-12,12-12c6.6,0,12,5.4,12,12"/>
	<line class="st2" x1="827.1" y1="602" x2="827.1" y2="612.8"/>
	<circle class="st2" cx="827.3" cy="615.3" r="3"/>
</g>
<g>
	<circle class="st2" cx="166.9" cy="688.2" r="3"/>
	<circle class="st2" cx="180.5" cy="688.2" r="3"/>
	<circle class="st2" cx="194.1" cy="688.2" r="3"/>
</g>
<g>
	<circle class="st2" cx="252.5" cy="674.6" r="3"/>
	<circle class="st2" cx="252.5" cy="688.2" r="3"/>
	<circle class="st2" cx="252.5" cy="701.8" r="3"/>
</g>
<g>
	<line class="st2" x1="312.1" y1="678.6" x2="336.1" y2="678.6"/>
	<line class="st2" x1="312.1" y1="685.6" x2="336.1" y2="685.6"/>
	<line class="st2" x1="312.1" y1="692.6" x2="336.1" y2="692.6"/>
</g>
<g>
	<line class="st2" x1="600.1" y1="688.6" x2="624.1" y2="688.6"/>
	<line class="st2" x1="612.1" y1="676.6" x2="612.1" y2="700.6"/>
</g>
<g>
	<line class="st2" x1="674.6" y1="680.1" x2="691.6" y2="697.1"/>
	<line class="st2" x1="691.6" y1="680.1" x2="674.6" y2="697.1"/>
</g>
<g>
	<line class="st2" x1="382.1" y1="678.6" x2="406.1" y2="678.6"/>
	<line class="st2" x1="382.1" y1="685.6" x2="399.1" y2="685.6"/>
	<line class="st2" x1="382.1" y1="692.6" x2="392.1" y2="692.6"/>
</g>
<g>
	<line class="st2" x1="482.1" y1="678.6" x2="458.1" y2="678.6"/>
	<line class="st2" x1="482.1" y1="685.6" x2="465.1" y2="685.6"/>
	<line class="st2" x1="482.1" y1="692.6" x2="472.1" y2="692.6"/>
</g>
<g>
	<path class="st2" d="M533.7,682.7h-6.2c-1,0-1.9-0.8-1.9-1.9v-6.2c0-1,0.8-1.9,1.9-1.9h6.2c1,0,1.9,0.8,1.9,1.9v6.2
		C535.6,681.9,534.8,682.7,533.7,682.7z"/>
	<path class="st2" d="M553.7,682.7h-6.2c-1,0-1.9-0.8-1.9-1.9v-6.2c0-1,0.8-1.9,1.9-1.9h6.2c1,0,1.9,0.8,1.9,1.9v6.2
		C555.6,681.9,554.8,682.7,553.7,682.7z"/>
	<path class="st2" d="M533.7,702.7h-6.2c-1,0-1.9-0.8-1.9-1.9v-6.2c0-1,0.8-1.9,1.9-1.9h6.2c1,0,1.9,0.8,1.9,1.9v6.2
		C535.6,701.9,534.8,702.7,533.7,702.7z"/>
	<path class="st2" d="M553.7,702.7h-6.2c-1,0-1.9-0.8-1.9-1.9v-6.2c0-1,0.8-1.9,1.9-1.9h6.2c1,0,1.9,0.8,1.9,1.9v6.2
		C555.6,701.9,554.8,702.7,553.7,702.7z"/>
</g>
<g>
	<g>
		<path class="st2" d="M771.7,692.4L751.8,673c-4.4-2.9-7.1-2.1-9.7-0.2c-3.4,2.6-3,7.7-0.5,10.2l20.4,20.6c1.5,1.5,5.3,2.4,7.5,0.1
			c2.1-2.3,2.2-4.9,0.7-6.4l-15.8-15.6"/>
	</g>
	<g>
		<path class="st2" d="M754.4,681.7c-1.1-1.1-2.8-1.1-3.7-0.2c-1,1-0.9,2.6,0.2,3.7l9.3,9.2"/>
	</g>
</g>
<g>
	<circle class="st2" cx="828.1" cy="688.2" r="17"/>
	<ellipse class="st2" cx="828.1" cy="688.2" rx="8.2" ry="17"/>
	<line class="st2" x1="828.1" y1="671.2" x2="828.1" y2="705.2"/>
	<line class="st2" x1="844.1" y1="684.2" x2="812.1" y2="684.2"/>
	<line class="st2" x1="844.1" y1="693.2" x2="812.1" y2="693.2"/>
</g>
<g>
	<g>
		<path class="st2" d="M398.7,410.1h-17c-1.2,0-2.1-0.9-2.1-2.1v-15.8c0-1.2,0.9-2.1,2.1-2.1h17c1.2,0,2.1,0.9,2.1,2.1V408
			C400.8,409.2,399.9,410.1,398.7,410.1z"/>
	</g>
	<path class="st2" d="M411.5,392l-10.7,5.8v4.5l10.7,5.5c0.9,0.5,2.1,0,2.1-0.9v-14.1C413.6,392,412.3,391.5,411.5,392z"/>
</g>
<g>
	<path class="st0" d="M251,99.7c0.5,0.7,1.5,0.6,2-0.1c0.9-1.2,2.2-2.8,3.3-3.3c1.3-0.7,2.7-0.9,4.1-0.8c1.6,0.1,3.1,0.6,4.5,1.5
		c2.2,1.5,3.6,3.7,4.1,6.5c0.5,2.6,0,5.2-1,7.6c-0.5,1.4-1.2,2.6-1.9,3.8c-1.9,3.1-4.1,5.8-6.6,8.4c-1.6,1.6-4.5,4.2-6.2,5.6
		c-0.8,0.7-1.9,0.6-2.6-0.1c-1.4-1.3-3.7-3.5-5-4.8c-2.5-2.5-4.9-5.2-6.9-8.2c-1.4-2.1-2.6-4.4-3.2-7c-0.3-1.2-0.4-2.5-0.3-3.8
		c0.2-2.4,0.9-4.7,2.4-6.5c1.3-1.6,2.8-2.5,4.7-2.9c1.6-0.3,3.2-0.3,4.8,0.3C248.2,96.5,249.9,98.4,251,99.7z"/>
</g>
<g>
	<path class="st2" d="M260.9,271.8h-17.8c-1.2,0-2.1-0.9-2.1-2.1v-22.6c0-1.2,0.9-2.1,2.1-2.1h17.8c1.2,0,2.1,0.9,2.1,2.1v22.6
		C263,270.9,262.1,271.8,260.9,271.8z"/>
	<line class="st2" x1="247.1" y1="251.6" x2="257.1" y2="251.6"/>
	<line class="st2" x1="247.1" y1="257.2" x2="254.1" y2="257.2"/>
	<line class="st2" x1="247.1" y1="263.6" x2="251.2" y2="263.6"/>
	<line class="st2" x1="251.8" y1="240.7" x2="251.8" y2="244.7"/>
	<line class="st2" x1="256.8" y1="242.3" x2="256.8" y2="244.3"/>
	<line class="st2" x1="246.8" y1="242.3" x2="246.8" y2="244.3"/>
</g>
<g>
	<path class="st2" d="M339.3,606.9c0-7.5-6-13.5-13.5-13.5c-7.5,0-13.5,6-13.5,13.5c0,5.1,2.8,9.5,7,11.8v4.7h12v-4.2
		C336,617.1,339.3,612.4,339.3,606.9z"/>
	<rect x="321.3" y="623.4" class="st2" width="8" height="5"/>
	<path class="st2" d="M327.3,629.5c0,1-0.9,1.9-2,1.9c-1.1,0-2-0.8-2-1.9"/>
	<line class="st2" x1="325.3" y1="609.4" x2="325.3" y2="623.4"/>
	<line class="st2" x1="322.3" y1="606.4" x2="325.3" y2="609.4"/>
	<line class="st2" x1="328.3" y1="606.4" x2="325.3" y2="609.4"/>
</g>
</svg>
