<svg width="36" height="30" viewBox="0 0 36 30" fill="none" xmlns="http://www.w3.org/2000/svg">
<path d="M31 28.9H4.89999C2.69999 28.9 1 27.1 1 25V4.89999C1 2.69999 2.79999 1 4.89999 1H31C33.2 1 34.9 2.79999 34.9 4.89999V25C34.9 27.1 33.1 28.9 31 28.9Z" stroke="black" stroke-width="2" stroke-miterlimit="10" stroke-linecap="round"/>
<path d="M4.89999 20.9L10.6 16C11.4 15.3 12.5 15.3 13.3 15.8L20.5 20.1C21.3 20.6 22.4 20.5 23.1 19.9L30.8 13.9" stroke="black" stroke-width="2" stroke-miterlimit="10" stroke-linecap="round"/>
<path d="M20.9 11.9C22.5568 11.9 23.9 10.5568 23.9 8.89999C23.9 7.24314 22.5568 5.89999 20.9 5.89999C19.2431 5.89999 17.9 7.24314 17.9 8.89999C17.9 10.5568 19.2431 11.9 20.9 11.9Z" stroke="black" stroke-width="2" stroke-miterlimit="10" stroke-linecap="round"/>
</svg>
