<svg width="27" height="36" viewBox="0 0 27 36" fill="none" xmlns="http://www.w3.org/2000/svg">
<path d="M13.5 17.1C17.0899 17.1 20 14.1898 20 10.6C20 7.01012 17.0899 4.09998 13.5 4.09998C9.91015 4.09998 7 7.01012 7 10.6C7 14.1898 9.91015 17.1 13.5 17.1Z" stroke="black" stroke-width="2" stroke-miterlimit="10" stroke-linecap="round"/>
<path d="M10.4 4.09998C10.4 2.39998 11.8 1 13.5 1C15.2 1 16.6 2.39998 16.6 4.09998" stroke="black" stroke-width="2" stroke-miterlimit="10" stroke-linecap="round"/>
<path d="M1 35V30C1 23.2 6.5 17.7 13.3 17.7C20.1 17.7 25.6 23.2 25.6 30V35" stroke="black" stroke-width="2" stroke-miterlimit="10" stroke-linecap="round"/>
<path d="M14.1 8.29999C14.1 8.29999 11.1 11.9 7.39999 10.5" stroke="black" stroke-width="2" stroke-miterlimit="10" stroke-linecap="round"/>
<path d="M19.4 10C19.4 10 14.7 10.2 13.2 6.70001" stroke="black" stroke-width="2" stroke-miterlimit="10" stroke-linecap="round"/>
<path d="M7.39999 19.3L13.7 27.4L19 19.3" stroke="black" stroke-width="2" stroke-miterlimit="10" stroke-linecap="round"/>
</svg>
