<svg width="28" height="36" viewBox="0 0 28 36" fill="none" xmlns="http://www.w3.org/2000/svg">
<path d="M24.3 30.9H8.5C7 30.9 5.89999 29.7 5.89999 28.3V3.60001C5.89999 2.10001 7.1 1 8.5 1H24.3C25.8 1 26.9 2.20001 26.9 3.60001V28.3C26.9 29.7 25.7 30.9 24.3 30.9Z" stroke="black" stroke-width="2" stroke-miterlimit="10" stroke-linecap="round"/>
<path d="M21.2 31.4V32.8C21.2 34 20.2 34.9 19.1 34.9H3.09999C1.89999 34.9 1 33.9 1 32.8V7.90001C1 6.70001 1.99999 5.8 3.09999 5.8H4.79999" stroke="black" stroke-width="2" stroke-miterlimit="10" stroke-linecap="round"/>
<path d="M10.9 8.5H21.9" stroke="black" stroke-width="2" stroke-miterlimit="10" stroke-linecap="round"/>
<path d="M10.9 14.5H21.9" stroke="black" stroke-width="2" stroke-miterlimit="10" stroke-linecap="round"/>
<path d="M10.9 20.5H17.9" stroke="black" stroke-width="2" stroke-miterlimit="10" stroke-linecap="round"/>
</svg>
